<?xml version="1.0" encoding="utf-8"?>
<!-- Generator: Adobe Illustrator 19.0.0, SVG Export Plug-In . SVG Version: 6.00 Build 0)  -->
<svg version="1.1" id="logo" xmlns="http://www.w3.org/2000/svg" xmlns:xlink="http://www.w3.org/1999/xlink" x="0px" y="0px"
	 viewBox="0 0 218 35.5" style="enable-background:new 0 0 218 35.5;" xml:space="preserve">
<style type="text/css">
	.st0{fill:#FFFFFF;}
</style>
<g id="XMLID_83_">
	<path id="XMLID_84_" class="st0" d="M14.4,33.8c-0.2,0.1-0.5,0.2-0.8,0.4s-0.8,0.3-1.3,0.5c-0.5,0.2-1,0.3-1.6,0.4
		c-0.6,0.1-1.2,0.2-1.9,0.2c-0.7,0-1.4-0.1-2-0.3c-0.6-0.2-1.2-0.5-1.7-0.9c-0.5-0.4-0.9-0.9-1.2-1.5c-0.3-0.6-0.4-1.3-0.4-2.1V12.6
		H0V10h3.5V1.6h3.3V10h5.8v2.6H6.7v17c0.1,0.9,0.4,1.6,1,2c0.6,0.4,1.3,0.6,2.1,0.6c0.9,0,1.7-0.2,2.4-0.5c0.7-0.3,1.2-0.5,1.3-0.6
		L14.4,33.8z"/>
	<path id="XMLID_86_" class="st0" d="M21.8,4.8V0h3.3v4.8H21.8z M21.8,35V10h3.3v25H21.8z"/>
	<path id="XMLID_89_" class="st0" d="M72.9,35h-3.3v-14c0-2.9-0.5-5.1-1.4-6.4c-0.9-1.4-2.3-2.1-4.2-2.1c-1,0-1.9,0.2-2.7,0.5
		c-0.8,0.4-1.6,0.8-2.4,1.5c-0.7,0.6-1.4,1.4-1.9,2.3c-0.5,0.9-1,1.8-1.2,2.9V35h-3.3v-14c0-3-0.4-5.1-1.3-6.5c-0.9-1.3-2.3-2-4.1-2
		c-1.9,0-3.6,0.7-5,2c-1.5,1.3-2.5,3-3.2,5.2V35h-3.3V10h3v5.7c1-1.9,2.4-3.4,4-4.5c1.7-1.1,3.5-1.6,5.5-1.6c2.1,0,3.8,0.6,5.1,1.8
		c1.3,1.2,2,2.7,2.3,4.7c2.3-4.3,5.6-6.4,9.7-6.4c1.4,0,2.6,0.3,3.5,0.8c1,0.5,1.8,1.2,2.4,2.2c0.6,0.9,1,2.1,1.3,3.4
		c0.3,1.3,0.4,2.8,0.4,4.4V35z"/>
	<path id="XMLID_91_" class="st0" d="M94.2,35.5c-1.8,0-3.5-0.3-5-1c-1.5-0.7-2.9-1.6-4-2.8c-1.1-1.2-2-2.6-2.6-4.2
		c-0.6-1.6-0.9-3.2-0.9-5c0-1.8,0.3-3.4,0.9-5c0.6-1.6,1.5-2.9,2.6-4.1c1.1-1.2,2.4-2.1,4-2.8c1.5-0.7,3.2-1,5-1c1.8,0,3.5,0.3,5,1
		c1.5,0.7,2.8,1.6,3.9,2.8c1.1,1.2,1.9,2.5,2.5,4.1c0.6,1.5,0.9,3.2,0.9,4.9c0,0.3,0,0.5,0,0.8c0,0.3,0,0.4-0.1,0.5H85.1
		c0.1,1.3,0.4,2.6,0.9,3.7c0.5,1.1,1.2,2.1,2,3c0.8,0.8,1.8,1.5,2.8,1.9c1.1,0.5,2.2,0.7,3.4,0.7c0.8,0,1.6-0.1,2.4-0.3
		c0.8-0.2,1.5-0.5,2.2-0.9c0.7-0.4,1.3-0.9,1.8-1.4c0.5-0.6,0.9-1.2,1.2-1.8l2.8,0.8c-0.4,0.9-0.9,1.8-1.6,2.5
		c-0.7,0.8-1.5,1.4-2.4,2c-0.9,0.6-2,1-3.1,1.3S95.4,35.5,94.2,35.5z M103.4,21.2c-0.1-1.3-0.4-2.6-0.9-3.7c-0.5-1.1-1.2-2.1-2-2.9
		c-0.8-0.8-1.8-1.4-2.9-1.9c-1.1-0.4-2.2-0.7-3.5-0.7s-2.4,0.2-3.5,0.7c-1.1,0.4-2,1.1-2.9,1.9c-0.8,0.8-1.5,1.8-2,2.9
		c-0.5,1.1-0.8,2.3-0.9,3.6H103.4z"/>
	<path id="XMLID_94_" class="st0" d="M113.4,22.5c0-1.8,0.3-3.4,0.9-5c0.6-1.6,1.5-2.9,2.6-4.1c1.1-1.2,2.4-2.1,4-2.8
		c1.5-0.7,3.2-1,5.1-1c2.4,0,4.4,0.5,6.2,1.6c1.8,1.1,3.1,2.5,4,4.3l-3.2,1c-0.7-1.3-1.7-2.3-2.9-3s-2.6-1.1-4.2-1.1
		c-1.3,0-2.5,0.3-3.6,0.8c-1.1,0.5-2.1,1.2-2.9,2.1c-0.8,0.9-1.5,1.9-1.9,3.1c-0.5,1.2-0.7,2.5-0.7,4c0,1.4,0.2,2.7,0.7,4
		c0.5,1.2,1.1,2.3,2,3.2c0.8,0.9,1.8,1.6,2.9,2.2c1.1,0.5,2.3,0.8,3.5,0.8c0.8,0,1.6-0.1,2.4-0.3c0.8-0.2,1.5-0.5,2.2-0.9
		c0.7-0.4,1.2-0.9,1.7-1.4c0.5-0.5,0.8-1.1,1-1.6l3.2,1c-0.4,0.9-0.9,1.7-1.5,2.5c-0.7,0.8-1.5,1.4-2.4,2c-0.9,0.6-1.9,1-3,1.3
		c-1.1,0.3-2.2,0.5-3.4,0.5c-1.8,0-3.5-0.3-5-1c-1.5-0.7-2.9-1.6-4-2.8c-1.1-1.2-2-2.6-2.6-4.2C113.7,25.9,113.4,24.3,113.4,22.5z"
		/>
	<path id="XMLID_96_" class="st0" d="M151.7,35.5c-1.3,0-2.4-0.2-3.5-0.6c-1.1-0.4-2-1-2.7-1.7c-0.8-0.7-1.3-1.5-1.8-2.4
		c-0.4-0.9-0.6-1.9-0.6-2.9c0-1.2,0.3-2.2,0.8-3.1c0.5-0.9,1.2-1.8,2.2-2.4c0.9-0.7,2-1.2,3.3-1.6c1.3-0.4,2.7-0.6,4.3-0.6
		c1.2,0,2.5,0.1,3.8,0.3c1.3,0.2,2.5,0.5,3.5,1v-2.3c0-2.2-0.6-4-1.9-5.3c-1.3-1.3-3-1.9-5.1-1.9c-1.3,0-2.7,0.3-4,0.8
		c-1.3,0.5-2.7,1.2-4.1,2.2l-1.2-2.2c1.6-1.1,3.2-1.9,4.8-2.4c1.5-0.5,3.1-0.8,4.8-0.8c3,0,5.5,0.9,7.2,2.6c1.8,1.8,2.7,4.2,2.7,7.3
		v11.3c0,0.9,0.4,1.3,1.2,1.3V35c-0.3,0-0.5,0.1-0.7,0.1c-0.2,0-0.4,0-0.6,0c-0.6,0-1.2-0.2-1.8-0.6c-0.5-0.4-0.8-1-0.9-1.7l-0.1-2
		c-1.1,1.5-2.5,2.6-4.3,3.4C155.3,35.1,153.5,35.5,151.7,35.5z M152.5,33c1.4,0,2.9-0.3,4.3-0.9c1.4-0.6,2.6-1.5,3.4-2.6
		c0.2-0.3,0.4-0.6,0.6-0.9c0.2-0.3,0.2-0.6,0.2-0.9v-4.1c-1.1-0.4-2.2-0.7-3.4-1c-1.2-0.2-2.3-0.3-3.5-0.3c-2.3,0-4.2,0.5-5.7,1.4
		c-1.5,0.9-2.2,2.2-2.2,3.9c0,0.7,0.1,1.3,0.4,2c0.3,0.6,0.6,1.2,1.2,1.7c0.5,0.5,1.2,0.9,1.9,1.2C150.5,32.9,151.4,33,152.5,33z"/>
	<path id="XMLID_99_" class="st0" d="M187.4,12.9c-2.2,0.1-4.1,0.7-5.8,1.8c-1.6,1.2-2.8,2.7-3.5,4.8V35H175V10h3.1v6
		c0.9-1.8,2-3.2,3.4-4.4c1.4-1.2,2.9-1.8,4.6-1.8c0.3,0,0.6,0,0.8,0c0.3,0,0.5,0,0.6,0V12.9z"/>
	<path id="XMLID_101_" class="st0" d="M204.7,35.5c-1.7,0-3.3-0.4-4.8-1.1c-1.5-0.7-2.7-1.7-3.8-2.9c-1.1-1.2-1.9-2.6-2.5-4.1
		c-0.6-1.6-0.9-3.2-0.9-4.9c0-1.8,0.3-3.4,0.9-5c0.6-1.6,1.4-3,2.4-4.2c1-1.2,2.2-2.1,3.6-2.8c1.4-0.7,2.9-1,4.6-1
		c2.1,0,4,0.6,5.6,1.7s2.9,2.4,3.9,4V0h3.3v30.8c0,0.9,0.4,1.3,1.2,1.3V35c-0.5,0.1-1,0.1-1.3,0.1c-0.8,0-1.5-0.2-2-0.7
		c-0.5-0.5-0.8-1-0.8-1.7v-2.6c-1,1.6-2.4,2.9-4.1,3.9S206.5,35.5,204.7,35.5z M205.3,32.6c0.8,0,1.7-0.2,2.6-0.5
		c0.9-0.3,1.8-0.8,2.5-1.3c0.8-0.6,1.5-1.2,2-2c0.6-0.8,0.9-1.6,1.1-2.4v-7.7c-0.3-0.9-0.8-1.7-1.4-2.4c-0.6-0.8-1.3-1.4-2.1-2
		c-0.8-0.6-1.6-1-2.5-1.3c-0.9-0.3-1.8-0.5-2.6-0.5c-1.3,0-2.6,0.3-3.7,0.9c-1.1,0.6-2,1.3-2.8,2.3c-0.8,0.9-1.4,2-1.8,3.2
		c-0.4,1.2-0.6,2.5-0.6,3.7c0,1.3,0.2,2.6,0.7,3.8c0.5,1.2,1.1,2.3,2,3.2s1.8,1.6,3,2.2C202.8,32.4,204,32.6,205.3,32.6z"/>
</g>
</svg>
